<mxfile host="app.diagrams.net" modified="2022-08-17T16:19:55.220Z" agent="5.0 (Windows NT 10.0; Win64; x64) AppleWebKit/537.36 (KHTML, like Gecko) Chrome/104.0.0.0 Safari/537.36" etag="HaSUSv3rRO27iwYtwiX6" version="16.6.6" type="github">
  <diagram id="L_wEp-IH1OTXIy5OqaKt" name="第 1 页">
    <mxGraphModel dx="1209" dy="741" grid="1" gridSize="10" guides="1" tooltips="1" connect="1" arrows="1" fold="1" page="1" pageScale="1" pageWidth="827" pageHeight="1169" math="0" shadow="0">
      <root>
        <mxCell id="0" />
        <mxCell id="1" parent="0" />
        <mxCell id="_I3CRRfn3vOz7CQam63d-2" value="redis集群" style="rounded=0;whiteSpace=wrap;html=1;sketch=1;points=[[0,0,0,0,0],[0,0.25,0,0,0],[0,0.5,0,0,0],[0,0.75,0,0,0],[0,1,0,0,0],[0.25,0,0,0,0],[0.25,1,0,0,0],[0.5,0,0,0,0],[0.5,1,0,0,0],[0.75,0,0,0,0],[0.75,1,0,0,0],[1,0,0,0,0],[1,0.25,0,0,0],[1,0.5,0,0,0],[1,0.75,0,0,0],[1,1,0,0,0]];" parent="1" vertex="1">
          <mxGeometry x="210" y="100" width="120" height="60" as="geometry" />
        </mxCell>
        <mxCell id="_I3CRRfn3vOz7CQam63d-10" value="" style="edgeStyle=orthogonalEdgeStyle;sketch=1;orthogonalLoop=1;jettySize=auto;html=1;entryX=1;entryY=0.5;entryDx=0;entryDy=0;exitX=0.5;exitY=1;exitDx=0;exitDy=0;" parent="1" source="_I3CRRfn3vOz7CQam63d-9" target="_I3CRRfn3vOz7CQam63d-4" edge="1">
          <mxGeometry relative="1" as="geometry" />
        </mxCell>
        <mxCell id="_I3CRRfn3vOz7CQam63d-11" value="同步更新" style="edgeLabel;html=1;align=center;verticalAlign=middle;resizable=0;points=[];" parent="_I3CRRfn3vOz7CQam63d-10" vertex="1" connectable="0">
          <mxGeometry x="0.2936" y="-1" relative="1" as="geometry">
            <mxPoint x="46" y="1" as="offset" />
          </mxGeometry>
        </mxCell>
        <mxCell id="_I3CRRfn3vOz7CQam63d-3" value="redis集群" style="rounded=0;whiteSpace=wrap;html=1;sketch=1;" parent="1" vertex="1">
          <mxGeometry x="410" y="100" width="120" height="60" as="geometry" />
        </mxCell>
        <mxCell id="_I3CRRfn3vOz7CQam63d-15" value="" style="edgeStyle=orthogonalEdgeStyle;sketch=1;orthogonalLoop=1;jettySize=auto;html=1;entryX=0.5;entryY=1;entryDx=0;entryDy=0;exitX=0.5;exitY=0;exitDx=0;exitDy=0;" parent="1" source="_I3CRRfn3vOz7CQam63d-16" target="_I3CRRfn3vOz7CQam63d-4" edge="1">
          <mxGeometry relative="1" as="geometry">
            <mxPoint x="420" y="380" as="sourcePoint" />
          </mxGeometry>
        </mxCell>
        <mxCell id="_I3CRRfn3vOz7CQam63d-4" value="redis集群" style="rounded=0;whiteSpace=wrap;html=1;sketch=1;" parent="1" vertex="1">
          <mxGeometry x="310" y="270" width="120" height="60" as="geometry" />
        </mxCell>
        <mxCell id="_I3CRRfn3vOz7CQam63d-7" value="" style="endArrow=classic;html=1;sketch=1;entryX=0.5;entryY=0;entryDx=0;entryDy=0;edgeStyle=orthogonalEdgeStyle;" parent="1" target="_I3CRRfn3vOz7CQam63d-4" edge="1">
          <mxGeometry width="50" height="50" relative="1" as="geometry">
            <mxPoint x="280" y="160" as="sourcePoint" />
            <mxPoint x="330" y="110" as="targetPoint" />
            <Array as="points">
              <mxPoint x="280" y="210" />
              <mxPoint x="370" y="210" />
            </Array>
          </mxGeometry>
        </mxCell>
        <mxCell id="_I3CRRfn3vOz7CQam63d-8" value="" style="endArrow=classic;html=1;sketch=1;exitX=0.5;exitY=1;exitDx=0;exitDy=0;edgeStyle=orthogonalEdgeStyle;" parent="1" source="_I3CRRfn3vOz7CQam63d-3" target="_I3CRRfn3vOz7CQam63d-4" edge="1">
          <mxGeometry width="50" height="50" relative="1" as="geometry">
            <mxPoint x="290" y="170" as="sourcePoint" />
            <mxPoint x="370" y="240" as="targetPoint" />
            <Array as="points">
              <mxPoint x="470" y="210" />
              <mxPoint x="370" y="210" />
            </Array>
          </mxGeometry>
        </mxCell>
        <mxCell id="_I3CRRfn3vOz7CQam63d-9" value="后台修改" style="whiteSpace=wrap;html=1;rounded=0;sketch=1;" parent="1" vertex="1">
          <mxGeometry x="610" y="100" width="120" height="60" as="geometry" />
        </mxCell>
        <mxCell id="_I3CRRfn3vOz7CQam63d-12" value="" style="whiteSpace=wrap;html=1;rounded=0;sketch=1;" parent="1" vertex="1">
          <mxGeometry x="120" y="410" width="120" height="60" as="geometry" />
        </mxCell>
        <mxCell id="_I3CRRfn3vOz7CQam63d-17" value="" style="edgeStyle=orthogonalEdgeStyle;sketch=1;orthogonalLoop=1;jettySize=auto;html=1;exitX=0.5;exitY=0;exitDx=0;exitDy=0;entryX=0.5;entryY=1;entryDx=0;entryDy=0;" parent="1" source="_I3CRRfn3vOz7CQam63d-14" target="_I3CRRfn3vOz7CQam63d-4" edge="1">
          <mxGeometry relative="1" as="geometry" />
        </mxCell>
        <mxCell id="_I3CRRfn3vOz7CQam63d-14" value="应用" style="whiteSpace=wrap;html=1;rounded=0;sketch=1;" parent="1" vertex="1">
          <mxGeometry x="120" y="410" width="120" height="60" as="geometry" />
        </mxCell>
        <mxCell id="_I3CRRfn3vOz7CQam63d-19" value="" style="edgeStyle=orthogonalEdgeStyle;sketch=1;orthogonalLoop=1;jettySize=auto;html=1;entryX=0.5;entryY=1;entryDx=0;entryDy=0;exitX=0.5;exitY=0;exitDx=0;exitDy=0;" parent="1" source="_I3CRRfn3vOz7CQam63d-18" target="_I3CRRfn3vOz7CQam63d-4" edge="1">
          <mxGeometry relative="1" as="geometry" />
        </mxCell>
        <mxCell id="_I3CRRfn3vOz7CQam63d-22" value="" style="edgeStyle=orthogonalEdgeStyle;sketch=1;orthogonalLoop=1;jettySize=auto;html=1;entryX=0.5;entryY=1;entryDx=0;entryDy=0;exitX=0.5;exitY=0;exitDx=0;exitDy=0;" parent="1" source="_I3CRRfn3vOz7CQam63d-21" target="_I3CRRfn3vOz7CQam63d-16" edge="1">
          <mxGeometry relative="1" as="geometry">
            <mxPoint x="480" y="500" as="sourcePoint" />
          </mxGeometry>
        </mxCell>
        <mxCell id="_I3CRRfn3vOz7CQam63d-16" value="&lt;span&gt;应用&lt;/span&gt;" style="whiteSpace=wrap;html=1;rounded=0;sketch=1;" parent="1" vertex="1">
          <mxGeometry x="310" y="410" width="120" height="60" as="geometry" />
        </mxCell>
        <mxCell id="_I3CRRfn3vOz7CQam63d-18" value="&lt;span&gt;应用&lt;/span&gt;" style="whiteSpace=wrap;html=1;rounded=0;sketch=1;" parent="1" vertex="1">
          <mxGeometry x="520" y="410" width="120" height="60" as="geometry" />
        </mxCell>
        <mxCell id="_I3CRRfn3vOz7CQam63d-21" value="&lt;span&gt;客户端&lt;/span&gt;" style="whiteSpace=wrap;html=1;rounded=0;sketch=1;" parent="1" vertex="1">
          <mxGeometry x="310" y="550" width="120" height="60" as="geometry" />
        </mxCell>
      </root>
    </mxGraphModel>
  </diagram>
</mxfile>
